<mxfile host="65bd71144e">
    <diagram id="88pZRFUGG9QtHxRsaTs1" name="Page-1">
        <mxGraphModel dx="588" dy="918" grid="1" gridSize="10" guides="1" tooltips="1" connect="1" arrows="1" fold="1" page="0" pageScale="1" pageWidth="690" pageHeight="980" math="0" shadow="0">
            <root>
                <mxCell id="0"/>
                <mxCell id="1" parent="0"/>
                <mxCell id="2" value="node" style="rounded=1;whiteSpace=wrap;html=1;fillColor=#FFFFFF;fontColor=#0066ff;strokeColor=#0066ff;strokeWidth=2;" parent="1" vertex="1">
                    <mxGeometry x="40" y="240" width="40" height="80" as="geometry"/>
                </mxCell>
                <mxCell id="3" value="node" style="rounded=1;whiteSpace=wrap;html=1;fillColor=#FFFFFF;fontColor=#0066ff;strokeColor=#0066ff;strokeWidth=2;" parent="1" vertex="1">
                    <mxGeometry x="90" y="240" width="40" height="80" as="geometry"/>
                </mxCell>
                <mxCell id="4" value="node" style="rounded=1;whiteSpace=wrap;html=1;fillColor=#FFFFFF;fontColor=#0066ff;strokeColor=#0066ff;strokeWidth=2;" parent="1" vertex="1">
                    <mxGeometry x="140" y="240" width="40" height="80" as="geometry"/>
                </mxCell>
                <mxCell id="5" value="node" style="rounded=1;whiteSpace=wrap;html=1;fillColor=#FFFFFF;fontColor=#0066ff;strokeColor=#0066ff;strokeWidth=2;" parent="1" vertex="1">
                    <mxGeometry x="190" y="240" width="40" height="80" as="geometry"/>
                </mxCell>
                <mxCell id="6" value="node" style="rounded=1;whiteSpace=wrap;html=1;fillColor=#FFFFFF;fontColor=#0066ff;strokeColor=#0066ff;strokeWidth=2;" parent="1" vertex="1">
                    <mxGeometry x="240" y="240" width="40" height="80" as="geometry"/>
                </mxCell>
                <mxCell id="7" value="node" style="rounded=1;whiteSpace=wrap;html=1;fillColor=#FFFFFF;fontColor=#0066ff;strokeColor=#0066ff;strokeWidth=2;" parent="1" vertex="1">
                    <mxGeometry x="290" y="240" width="40" height="80" as="geometry"/>
                </mxCell>
                <mxCell id="8" value="node" style="rounded=1;whiteSpace=wrap;html=1;fillColor=#FFFFFF;fontColor=#0066ff;strokeColor=#0066ff;strokeWidth=2;" parent="1" vertex="1">
                    <mxGeometry x="340" y="240" width="40" height="80" as="geometry"/>
                </mxCell>
                <mxCell id="9" value="Deckhouse Virtualization" style="rounded=1;whiteSpace=wrap;html=1;fillColor=#0066ff;fontColor=#FFFFFF;strokeColor=#0066ff;strokeWidth=2;" parent="1" vertex="1">
                    <mxGeometry x="40" y="200" width="340" height="30" as="geometry"/>
                </mxCell>
                <mxCell id="10" value="" style="rounded=1;whiteSpace=wrap;html=1;fillColor=#FFFFFF;fontColor=#0066ff;strokeColor=#0066ff;strokeWidth=2;arcSize=5;" parent="1" vertex="1">
                    <mxGeometry x="40" y="-80" width="340" height="270" as="geometry"/>
                </mxCell>
                <mxCell id="11" value="" style="rounded=1;whiteSpace=wrap;html=1;fillColor=none;dashed=1;fontColor=#0066ff;strokeColor=#0066ff;strokeWidth=2;arcSize=10;" parent="1" vertex="1">
                    <mxGeometry x="50" y="-70" width="320" height="90" as="geometry"/>
                </mxCell>
                <mxCell id="12" value="namespace/tenant #1" style="text;html=1;strokeColor=none;fillColor=none;align=left;verticalAlign=middle;whiteSpace=wrap;rounded=1;fontColor=#0066ff;strokeWidth=2;" parent="1" vertex="1">
                    <mxGeometry x="60" y="-70" width="190" height="20" as="geometry"/>
                </mxCell>
                <mxCell id="13" value="vm" style="rounded=1;whiteSpace=wrap;html=1;fillColor=#FFFFFF;fontColor=#0066ff;strokeColor=#0066ff;strokeWidth=2;" parent="1" vertex="1">
                    <mxGeometry x="90" y="-43" width="40" height="40" as="geometry"/>
                </mxCell>
                <mxCell id="14" value="vm" style="rounded=1;whiteSpace=wrap;html=1;fillColor=#FFFFFF;fontColor=#0066ff;strokeColor=#0066ff;strokeWidth=2;" parent="1" vertex="1">
                    <mxGeometry x="190" y="-43" width="40" height="40" as="geometry"/>
                </mxCell>
                <mxCell id="15" value="vm" style="rounded=1;whiteSpace=wrap;html=1;fillColor=#FFFFFF;fontColor=#0066ff;strokeColor=#0066ff;strokeWidth=2;" parent="1" vertex="1">
                    <mxGeometry x="290" y="-43" width="40" height="40" as="geometry"/>
                </mxCell>
                <mxCell id="16" value="" style="rounded=1;whiteSpace=wrap;html=1;fillColor=none;dashed=1;fontColor=#0066ff;strokeColor=#0066ff;strokeWidth=2;arcSize=15;" parent="1" vertex="1">
                    <mxGeometry x="50" y="90" width="320" height="90" as="geometry"/>
                </mxCell>
                <mxCell id="17" value="namespace/tenant #N" style="text;html=1;strokeColor=none;fillColor=none;align=left;verticalAlign=middle;whiteSpace=wrap;rounded=1;fontColor=#0066ff;strokeWidth=2;" parent="1" vertex="1">
                    <mxGeometry x="60" y="90" width="190" height="20" as="geometry"/>
                </mxCell>
                <mxCell id="18" value="vm" style="rounded=1;whiteSpace=wrap;html=1;fillColor=#FFFFFF;fontColor=#0066ff;strokeColor=#0066ff;strokeWidth=2;" parent="1" vertex="1">
                    <mxGeometry x="90" y="120" width="40" height="40" as="geometry"/>
                </mxCell>
                <mxCell id="19" value="vm" style="rounded=1;whiteSpace=wrap;html=1;fillColor=#FFFFFF;fontColor=#0066ff;strokeColor=#0066ff;strokeWidth=2;" parent="1" vertex="1">
                    <mxGeometry x="140" y="120" width="40" height="40" as="geometry"/>
                </mxCell>
                <mxCell id="20" value="vm" style="rounded=1;whiteSpace=wrap;html=1;fillColor=#FFFFFF;fontColor=#0066ff;strokeColor=#0066ff;strokeWidth=2;" parent="1" vertex="1">
                    <mxGeometry x="290" y="120" width="40" height="40" as="geometry"/>
                </mxCell>
                <mxCell id="21" value="vm" style="rounded=1;whiteSpace=wrap;html=1;fillColor=#FFFFFF;fontColor=#0066ff;strokeColor=#0066ff;strokeWidth=2;" parent="1" vertex="1">
                    <mxGeometry x="240" y="120" width="40" height="40" as="geometry"/>
                </mxCell>
                <mxCell id="27" style="edgeStyle=none;html=1;exitX=0;exitY=0.75;exitDx=0;exitDy=0;entryX=1;entryY=0.5;entryDx=0;entryDy=0;strokeWidth=2;strokeColor=#0066ff;fontColor=#0066ff;" parent="1" source="25" target="11" edge="1">
                    <mxGeometry relative="1" as="geometry"/>
                </mxCell>
                <mxCell id="25" value="" style="shape=actor;whiteSpace=wrap;html=1;fillColor=#FFFFFF;fontColor=#333333;strokeColor=#0066ff;strokeWidth=2;" parent="1" vertex="1">
                    <mxGeometry x="407" y="-53" width="24" height="37" as="geometry"/>
                </mxCell>
                <mxCell id="26" value="user group #1" style="text;html=1;strokeColor=none;fillColor=none;align=center;verticalAlign=middle;whiteSpace=wrap;rounded=0;strokeWidth=2;fontColor=#0066ff;" parent="1" vertex="1">
                    <mxGeometry x="399" y="-5" width="51" height="35" as="geometry"/>
                </mxCell>
                <mxCell id="28" value="" style="shape=actor;whiteSpace=wrap;html=1;fillColor=#FFFFFF;fontColor=#333333;strokeColor=#0066ff;strokeWidth=2;" parent="1" vertex="1">
                    <mxGeometry x="417" y="-43" width="24" height="37" as="geometry"/>
                </mxCell>
                <mxCell id="29" value="" style="shape=actor;whiteSpace=wrap;html=1;fillColor=#FFFFFF;fontColor=#333333;strokeColor=#0066ff;strokeWidth=2;" parent="1" vertex="1">
                    <mxGeometry x="407" y="97" width="24" height="37" as="geometry"/>
                </mxCell>
                <mxCell id="30" value="user group #N" style="text;html=1;strokeColor=none;fillColor=none;align=center;verticalAlign=middle;whiteSpace=wrap;rounded=0;strokeWidth=2;fontColor=#0066ff;" parent="1" vertex="1">
                    <mxGeometry x="394" y="146" width="56" height="35" as="geometry"/>
                </mxCell>
                <mxCell id="32" style="edgeStyle=none;html=1;exitX=0;exitY=0.75;exitDx=0;exitDy=0;entryX=1;entryY=0.5;entryDx=0;entryDy=0;strokeWidth=2;strokeColor=#0066ff;fontColor=#0066ff;" parent="1" source="31" target="16" edge="1">
                    <mxGeometry relative="1" as="geometry"/>
                </mxCell>
                <mxCell id="31" value="" style="shape=actor;whiteSpace=wrap;html=1;fillColor=#FFFFFF;fontColor=#333333;strokeColor=#0066ff;strokeWidth=2;" parent="1" vertex="1">
                    <mxGeometry x="420" y="111.63" width="21" height="32.38" as="geometry"/>
                </mxCell>
                <mxCell id="33" value="..." style="rounded=1;whiteSpace=wrap;html=1;fillColor=none;dashed=1;fontColor=#0066ff;strokeColor=#0066ff;strokeWidth=2;arcSize=28;" parent="1" vertex="1">
                    <mxGeometry x="50" y="30" width="320" height="50" as="geometry"/>
                </mxCell>
            </root>
        </mxGraphModel>
    </diagram>
</mxfile>
